<?xml version="1.0" standalone="no"?>
<!DOCTYPE svg PUBLIC "-//W3C//DTD SVG 20010904//EN"
 "http://www.w3.org/TR/2001/REC-SVG-20010904/DTD/svg10.dtd">
<svg version="1.0" xmlns="http://www.w3.org/2000/svg"
 width="600.000000pt" height="290.000000pt" viewBox="0 0 600.000000 290.000000"
 preserveAspectRatio="xMidYMid meet">

<g transform="translate(0.000000,290.000000) scale(0.100000,-0.100000)"
fill="#000000" stroke="none">
<path d="M1269 2856 c-532 -77 -982 -442 -1158 -939 -94 -267 -105 -581 -29
-845 112 -394 393 -726 763 -903 192 -92 381 -131 625 -131 300 1 553 75 792
231 358 235 573 581 634 1024 l6 47 -502 -2 -502 -3 -24 -63 -23 -62 374 0
c303 0 375 -3 375 -13 0 -38 -78 -248 -135 -362 -76 -153 -138 -239 -254 -355
-100 -100 -174 -151 -326 -225 -199 -97 -332 -129 -545 -129 -242 0 -393 40
-592 156 -38 21 -68 43 -68 48 0 6 161 10 424 10 460 0 456 0 442 54 -4 17
-17 28 -43 37 -122 39 -237 121 -291 206 -51 81 -65 141 -60 256 4 100 6 106
72 262 86 202 161 379 440 1043 123 294 227 536 230 540 10 9 74 -17 147 -61
152 -91 316 -262 428 -447 106 -175 181 -418 181 -584 l0 -76 -574 0 -574 0
-18 -52 c-9 -29 -19 -59 -22 -65 -3 -10 145 -13 722 -13 l726 0 0 33 c0 50
-27 218 -50 309 -106 423 -350 735 -723 925 -101 52 -322 132 -333 121 -3 -3
-172 -400 -375 -882 -346 -819 -371 -883 -386 -977 -33 -198 15 -370 132 -477
30 -28 55 -53 55 -56 0 -3 -133 -6 -295 -6 -162 0 -295 3 -295 6 0 6 145 349
769 1823 139 326 250 596 247 599 -13 12 -297 10 -387 -2z m248 -58 c-3 -7
-93 -218 -200 -468 -562 -1314 -787 -1842 -787 -1851 0 -21 -21 -6 -73 54
-250 285 -381 633 -364 967 18 358 152 657 403 903 256 250 606 401 938 406
67 1 87 -2 83 -11z"/>
<path d="M3420 1455 l0 -595 120 0 120 0 0 229 0 230 373 3 372 3 50 25 c40
20 55 35 75 75 24 49 25 56 25 260 0 204 -1 211 -25 260 -20 40 -35 55 -75 75
l-50 25 -492 3 -493 3 0 -596z m842 385 c21 -6 42 -19 48 -30 13 -24 13 -225
0 -250 -19 -35 -64 -40 -361 -40 l-289 0 0 165 0 165 283 0 c164 0 298 -4 319
-10z"/>
<path d="M4883 2040 c-92 -19 -126 -51 -148 -138 -14 -52 -16 -124 -13 -479
l3 -418 25 -50 c18 -37 36 -55 65 -70 38 -19 60 -20 525 -20 469 0 486 1 525
21 29 14 47 34 65 70 25 48 25 54 28 322 l4 272 -316 0 -316 0 0 -100 0 -100
198 -2 197 -3 3 -132 3 -133 -386 0 -385 0 0 380 0 380 383 -2 382 -3 3 -62
c2 -38 7 -63 14 -63 6 0 58 10 116 22 l105 22 -6 74 c-8 104 -37 160 -102 192
l-50 25 -440 2 c-242 1 -459 -2 -482 -7z"/>
<path d="M3410 630 l0 -90 60 0 c33 0 60 4 60 10 0 6 -22 10 -50 10 l-50 0 0
34 c0 35 0 35 53 39 l52 3 -52 2 -53 2 0 34 c0 35 0 35 53 39 l52 3 -62 2 -63
2 0 -90z"/>
<path d="M3570 630 l0 -90 50 0 c28 0 50 5 50 10 0 6 -18 10 -40 10 l-40 0 0
80 c0 47 -4 80 -10 80 -6 0 -10 -37 -10 -90z"/>
<path d="M3710 630 l0 -90 60 0 c33 0 60 4 60 10 0 6 -22 10 -50 10 l-50 0 0
34 c0 35 0 35 53 39 l52 3 -52 2 -53 2 0 34 c0 35 0 35 53 39 l52 3 -62 2 -63
2 0 -90z"/>
<path d="M3898 700 c-73 -57 -9 -182 78 -153 15 5 30 15 32 22 3 9 -3 8 -21
-3 -49 -32 -107 5 -107 69 0 60 59 92 113 63 20 -10 21 -10 8 5 -18 23 -73 21
-103 -3z"/>
<path d="M4077 713 l32 -4 4 -87 3 -87 2 87 2 87 33 4 c17 2 1 4 -38 4 -38 0
-56 -2 -38 -4z"/>
<path d="M4222 628 c1 -51 3 -74 5 -50 4 37 7 42 28 42 18 0 31 -11 47 -40 13
-22 27 -40 31 -40 5 0 -1 16 -13 36 l-22 35 21 20 c45 42 16 89 -55 89 l-44 0
2 -92z m98 62 c18 -34 -4 -60 -50 -60 -40 0 -40 0 -40 40 0 40 0 40 40 40 29
0 42 -5 50 -20z"/>
<path d="M4419 707 c-27 -21 -41 -57 -35 -92 11 -59 71 -89 124 -61 78 41 50
166 -37 166 -20 0 -43 -6 -52 -13z m101 -17 c25 -25 26 -80 3 -108 -27 -32
-64 -37 -96 -12 -36 29 -39 100 -5 124 31 22 74 20 98 -4z"/>
<path d="M4600 630 c0 -53 4 -90 10 -90 6 0 10 18 10 40 0 38 2 40 31 40 46 0
69 16 69 50 0 36 -23 50 -79 50 l-41 0 0 -90z m104 58 c17 -27 -5 -52 -48 -56
l-36 -3 0 41 0 41 36 -3 c22 -2 42 -10 48 -20z"/>
<path d="M4760 630 l0 -90 50 0 c28 0 50 5 50 10 0 6 -18 10 -40 10 l-40 0 0
80 c0 47 -4 80 -10 80 -6 0 -10 -37 -10 -90z"/>
<path d="M4951 698 c-5 -13 -20 -52 -35 -87 -30 -73 -29 -71 -17 -71 5 0 12
11 15 25 6 23 11 25 56 25 45 0 52 -3 61 -26 5 -15 12 -24 15 -22 8 9 -60 171
-74 176 -6 2 -16 -7 -21 -20z m43 -41 c9 -23 16 -46 16 -50 0 -4 -18 -7 -41
-7 -29 0 -40 4 -36 13 2 6 10 29 18 50 7 20 16 37 20 37 3 0 14 -19 23 -43z"/>
<path d="M5092 708 c-30 -30 -10 -59 54 -81 49 -17 58 -51 20 -69 -20 -8 -32
-8 -52 1 -15 6 -29 9 -32 7 -5 -6 42 -26 61 -26 28 0 58 32 55 58 -2 22 -11
30 -43 40 -56 18 -73 36 -55 58 10 12 24 15 52 11 21 -3 36 -1 32 4 -8 13 -78
11 -92 -3z"/>
<path d="M5258 713 l32 -4 0 -85 c0 -49 4 -84 10 -84 6 0 10 35 10 84 l0 85
33 4 c17 2 -2 4 -43 4 -41 0 -60 -2 -42 -4z"/>
<path d="M5482 633 l-2 -93 50 0 c28 0 50 5 50 10 0 6 -20 10 -45 10 l-44 0
-4 83 -3 82 -2 -92z"/>
<path d="M5607 713 l32 -4 4 -87 3 -87 2 87 2 87 33 4 c17 2 1 4 -38 4 -38 0
-56 -2 -38 -4z"/>
<path d="M5750 630 l0 -90 29 0 c47 0 91 21 106 51 22 42 18 67 -14 100 -24
24 -38 29 -75 29 l-46 0 0 -90z m110 60 c25 -25 27 -86 3 -112 -11 -12 -30
-18 -60 -18 l-43 0 0 75 0 75 40 0 c27 0 47 -7 60 -20z"/>
</g>
</svg>
